<?xml version="1.0" encoding="utf-8"?><svg xmlns="http://www.w3.org/2000/svg" xmlns:xlink="http://www.w3.org/1999/xlink"><symbol viewBox="0 0 45 12" id="arrow" xmlns="http://www.w3.org/2000/svg"><path d="M44.802 5.523L37.145.198a.678.678 0 00-.957 0 .673.673 0 000 .954l6.5 4.173H.678a.676.676 0 100 1.35h42.01l-6.5 4.173A.673.673 0 0036.667 12a.676.676 0 00.478-.198l7.657-5.325a.673.673 0 000-.954z"/></symbol><symbol viewBox="0 0 35 45" id="calc" xmlns="http://www.w3.org/2000/svg"><path d="M34.06 0H.94a.94.94 0 00-.665.277.951.951 0 00-.275.67v43.106c0 .25.099.492.275.67A.936.936 0 00.94 45h33.12c.25 0 .488-.1.665-.278a.95.95 0 00.275-.67V.948a.951.951 0 00-.275-.67A.936.936 0 0034.06 0zm-.94 43.105H1.88V1.895h31.24v41.21z"/><path d="M7.632 13.358h19.736c.25 0 .489-.1.665-.278a.951.951 0 00.275-.67V6.974a.95.95 0 00-.275-.67.936.936 0 00-.665-.278H7.632c-.25 0-.489.1-.665.278a.951.951 0 00-.275.67v5.438c0 .25.099.492.275.67a.936.936 0 00.665.277zm.94-5.438h17.857v3.543H8.57V7.92zm.3 13.794c.841 0 1.523-.687 1.523-1.535 0-.848-.682-1.535-1.523-1.535-.84 0-1.522.687-1.522 1.535 0 .848.681 1.535 1.522 1.535zm5.752 0a1.53 1.53 0 001.523-1.535c0-.848-.682-1.535-1.523-1.535a1.53 1.53 0 00-1.523 1.535c0 .848.682 1.535 1.523 1.535zm5.752 0c.84 0 1.522-.687 1.522-1.535 0-.848-.681-1.535-1.522-1.535a1.53 1.53 0 00-1.523 1.535c0 .848.682 1.535 1.523 1.535zm5.771 0c.84 0 1.522-.687 1.522-1.535 0-.848-.681-1.535-1.522-1.535s-1.523.687-1.523 1.535c0 .848.682 1.535 1.523 1.535zM8.872 28.933c.851 0 1.542-.696 1.542-1.554 0-.858-.69-1.554-1.542-1.554-.851 0-1.541.696-1.541 1.554 0 .858.69 1.554 1.541 1.554zm5.752 0c.851 0 1.541-.696 1.541-1.554 0-.858-.69-1.554-1.54-1.554-.852 0-1.542.696-1.542 1.554 0 .858.69 1.554 1.541 1.554zm5.752 0c.851 0 1.541-.696 1.541-1.554 0-.858-.69-1.554-1.541-1.554s-1.541.696-1.541 1.554c0 .858.69 1.554 1.54 1.554zm5.771 0c.85 0 1.541-.696 1.541-1.554 0-.858-.69-1.554-1.541-1.554-.852 0-1.542.696-1.542 1.554 0 .858.69 1.554 1.542 1.554zm-17.275 7.2c.851 0 1.542-.696 1.542-1.554 0-.858-.69-1.554-1.542-1.554-.851 0-1.541.696-1.541 1.554 0 .858.69 1.554 1.541 1.554zm5.752 0c.851 0 1.541-.696 1.541-1.554 0-.858-.69-1.554-1.54-1.554-.852 0-1.542.696-1.542 1.554 0 .858.69 1.554 1.541 1.554zm5.752 0c.851 0 1.541-.696 1.541-1.554 0-.858-.69-1.554-1.541-1.554s-1.541.696-1.541 1.554c0 .858.69 1.554 1.54 1.554zm5.771 0c.85 0 1.541-.696 1.541-1.554 0-.858-.69-1.554-1.541-1.554-.852 0-1.542.696-1.542 1.554 0 .858.69 1.554 1.542 1.554z"/></symbol><symbol viewBox="0 0 20 20" id="clock" xmlns="http://www.w3.org/2000/svg"><path d="M10 20a10 10 0 110-20 10 10 0 010 20zm0-18.667a8.667 8.667 0 100 17.334 8.667 8.667 0 000-17.334z"/><path d="M12.827 13.773l-3.3-3.3A.666.666 0 019.333 10V4.667h1.334v5.06l3.106 3.1-.946.946z"/></symbol><symbol viewBox="0 0 32 32" id="close" xmlns="http://www.w3.org/2000/svg"><defs><style>.dcls-1{fill:none;stroke:#000;stroke-linecap:round;stroke-linejoin:round;stroke-width:2px}</style></defs><path class="dcls-1" d="M7 7l18 18M7 25L25 7" id="dcross"/></symbol><symbol viewBox="0 0 31 31" id="close-m" xmlns="http://www.w3.org/2000/svg"><path d="M15.27 30.54C6.85 30.54 0 23.69 0 15.27S6.85 0 15.27 0s15.27 6.85 15.27 15.27-6.85 15.27-15.27 15.27zm0-28.324c-7.198 0-13.054 5.856-13.054 13.054S8.072 28.324 15.27 28.324s13.054-5.856 13.054-13.054S22.468 2.216 15.27 2.216z"/><path d="M21.616 22.897a1.108 1.108 0 01-.783-.324L8.14 9.88a1.108 1.108 0 111.567-1.567L22.4 21.006a1.107 1.107 0 01-.784 1.891z"/><path d="M8.923 22.898a1.108 1.108 0 01-.783-1.891L20.833 8.313A1.108 1.108 0 0122.4 9.88L9.707 22.573a1.11 1.11 0 01-.784.325z"/></symbol><symbol viewBox="0 0 240 265" id="cube" xmlns="http://www.w3.org/2000/svg"><path d="M120 128.106l113.538-65.671L124.615 1.387c-2.769-1.85-6.461-1.85-9.23 0L6.462 63.36 120 128.106zm-9.231 16.65L0 80.934v115.619c0 3.7 1.846 6.475 4.615 8.325L110.77 265V144.756zm18.462 0V265l106.154-60.122c2.769-1.85 4.615-4.625 4.615-8.325V80.933l-110.769 63.823z"/></symbol><symbol viewBox="0 0 199 265" id="doc" xmlns="http://www.w3.org/2000/svg"><path d="M197.687 72.323c-.622-1.518-1.382-2.967-2.418-4.21L137.365 4.831c-1.313-1.45-2.902-2.485-4.629-3.382C130.732.414 128.521 0 126.172 0H15.685C7.117 0 0 7.315 0 16.494v231.322C0 257.064 7.117 265 15.685 265H183.66c8.568 0 15.34-7.936 15.34-17.184V79.362c0-2.484-.345-4.9-1.313-7.04zM33.167 78.81c0-1.035 1.243-1.45 2.349-1.45h48.92c1.106 0 1.935.415 1.935 1.45v7.453c0 .966-.76 2.14-1.934 2.14H35.516c-1.106 0-2.35-1.174-2.35-2.14V78.81zm0 88.333c0-1.035 1.243-1.449 2.349-1.449h84.437c1.105 0 1.658.414 1.658 1.449v7.453c0 .966-.484 2.14-1.658 2.14H35.516c-1.106 0-2.35-1.174-2.35-2.14v-7.453zm110.555 51.62c0 .966-.483 2.139-1.658 2.139H35.516c-1.106 0-2.35-1.173-2.35-2.139v-7.453c0-1.035 1.244-1.449 2.35-1.449h106.548c1.105 0 1.658.414 1.658 1.449v7.453zm22.111-88.333c0 .966-.483 2.139-1.658 2.139H35.516c-1.106 0-2.35-1.173-2.35-2.139v-7.453c0-1.036 1.244-1.45 2.35-1.45h128.659c1.106 0 1.658.414 1.658 1.45v7.453zm-32.406-52.38c-3.87 0-7.67-3.588-7.67-7.797V24.706l49.197 53.345h-41.527z"/></symbol><symbol viewBox="0 0 30 38" id="document" xmlns="http://www.w3.org/2000/svg"><path d="M28.58 11.528v25.016H1V1h16.955"/><path d="M28.212 11.892H17.955a.365.365 0 01-.367-.364V1.364c0-.202.164-.364.367-.364L28.58 11.528a.365.365 0 01-.367.364z"/></symbol><symbol viewBox="0 0 11 8" id="done" xmlns="http://www.w3.org/2000/svg"><path d="M4.125 8c-.344 0-.688-.133-.962-.4L.413 4.933c-.55-.533-.55-1.333 0-1.866.55-.534 1.443-.534 1.924 0L4.125 4.8 8.662.4a1.358 1.358 0 011.925 0c.55.533.55 1.333 0 1.867L5.088 7.6c-.274.267-.618.4-.962.4z"/></symbol><symbol viewBox="0 0 37 27" id="mail" xmlns="http://www.w3.org/2000/svg"><path d="M36.966 26.499a.79.79 0 00.034-.221V.72a.787.787 0 00-.034-.22l-.008-.03a.739.739 0 00-.119-.221l-.007-.014-.007-.006a.655.655 0 00-.19-.155l-.015-.01a.58.58 0 00-.22-.06l-.022-.002L36.357 0H.644L.623.002c-.007 0-.014.002-.02.003a.587.587 0 00-.223.06L.368.072A.646.646 0 00.176.23L.169.235C.165.239.165.244.16.248A.743.743 0 00.042.47L.034.5A.787.787 0 000 .721v25.557a.79.79 0 00.035.225l.008.028a.748.748 0 00.12.223l.007.012.009.009a.678.678 0 00.068.067c.011.01.02.02.032.029.028.022.058.04.09.056l.022.014A.586.586 0 00.644 27h35.712c.09 0 .175-.02.253-.058.012-.006.023-.015.034-.021a.65.65 0 00.078-.05.392.392 0 00.037-.034.618.618 0 00.062-.062.032.032 0 00.01-.01l.009-.015a.74.74 0 00.118-.22l.01-.031zM1.288 2.358L12.124 13.45 1.288 24.633V2.358zm22.21 10.55c-.045.032-.092.06-.13.106-.013.017-.018.04-.03.058L18.5 18.024 2.304 1.443h32.393l-11.2 11.465zm-10.42 1.52l4.988 5.106a.605.605 0 00.434.189.604.604 0 00.434-.19l4.925-5.041 10.835 11.065h-32.4L13.08 14.428zm11.736-.914L35.712 2.358v22.287l-10.898-11.13z"/></symbol><symbol viewBox="0 0 24 24" id="mark-done" xmlns="http://www.w3.org/2000/svg"><path d="M12 0C5.373 0 0 5.373 0 12c0 6.628 5.373 12 12 12s12-5.372 12-12c0-6.627-5.373-12-12-12zm7.754 9.561l-8.607 8.607a.448.448 0 01-.637 0l-1.272-1.285c-.175-.176-.462-.464-.636-.642l-2.96-3.112a.47.47 0 01-.133-.327c0-.115.046-.227.133-.314l1.297-1.169a.447.447 0 01.636 0l2.936 2.995a.447.447 0 00.637 0l6.699-6.681a.447.447 0 01.636 0l1.272 1.285a.458.458 0 01-.001.643z"/></symbol><symbol viewBox="0 0 17 24" id="marker" xmlns="http://www.w3.org/2000/svg"><path d="M16 8.174C16 14.68 8.5 23 8.5 23S1 14.835 1 8.174C1 4.212 4.357 1 8.5 1 12.642 1 16 4.212 16 8.174z"/><path d="M8.5 11.522c1.657 0 3-1.285 3-2.87 0-1.585-1.343-2.87-3-2.87s-3 1.285-3 2.87c0 1.585 1.343 2.87 3 2.87z"/></symbol><symbol viewBox="0 0 21 21" id="mes" xmlns="http://www.w3.org/2000/svg"><path d="M18.536 0H2.461A2.46 2.46 0 000 2.46v10.594a2.461 2.461 0 002.46 2.461h3.82a.164.164 0 01.163.164v4.173a1.149 1.149 0 001.96.812l5.099-5.1a.164.164 0 01.116-.047h4.921A2.46 2.46 0 0021 13.056V2.461A2.462 2.462 0 0018.536 0zm1.476 13.054a1.477 1.477 0 01-1.476 1.477h-4.92a1.148 1.148 0 00-.813.328L7.71 19.966a.164.164 0 01-.28-.116v-4.17a1.149 1.149 0 00-1.15-1.15H2.46a1.476 1.476 0 01-1.477-1.477V2.461A1.477 1.477 0 012.461.984h16.075a1.476 1.476 0 011.476 1.477v10.593z"/></symbol><symbol viewBox="0 0 57 42" id="piram" xmlns="http://www.w3.org/2000/svg"><path d="M56.352 37.043H.648a.649.649 0 00-.648.646v3.665c0 .355.291.646.648.646h55.704c.36 0 .648-.29.648-.646v-3.665a.646.646 0 00-.648-.646zm-.647 3.665H1.295v-2.373h54.41v2.373zM3.461 32.739H53.54c.358 0 .647-.29.647-.646v-3.664a.647.647 0 00-.648-.646H3.462a.647.647 0 00-.647.646v3.664c0 .356.287.646.647.646zm.648-3.664h48.782v2.37H4.109v-2.37zm2.166-5.598h44.452c.357 0 .648-.29.648-.646v-3.665a.649.649 0 00-.648-.646H6.275a.647.647 0 00-.648.646v3.665c0 .358.288.646.648.646zm.648-3.665H50.08v2.373H6.923v-2.373zm2.166-5.595h38.825c.356 0 .647-.29.647-.646V9.906a.649.649 0 00-.647-.646H9.089a.647.647 0 00-.648.646v3.665c0 .355.288.646.648.646zm.648-3.665h37.529v2.373H9.736v-2.373zM11.9 4.956h33.2a.65.65 0 00.648-.646V.646A.649.649 0 0045.1 0H11.9a.649.649 0 00-.648.646V4.31c0 .355.29.646.648.646zm.648-3.665h31.904v2.37H12.548V1.29z"/></symbol><symbol viewBox="0 0 12 13" id="pol" xmlns="http://www.w3.org/2000/svg"><path d="M12 6.5L.75 12.995V.005L12 6.5z"/></symbol><symbol viewBox="0 0 78 78" id="r1" xmlns="http://www.w3.org/2000/svg"><path fill-rule="evenodd" clip-rule="evenodd" d="M76.7 2.6h-9.862L64.618.381a1.298 1.298 0 00-1.837 0l-2.22 2.22H1.302A1.3 1.3 0 000 3.9v15.6a1.3 1.3 0 001.3 1.3h54.6a1.3 1.3 0 001.3-1.3v-5.2a1.3 1.3 0 00-2.6 0v3.9h-5.2v-1.3a1.3 1.3 0 00-2.6 0v1.3h-5.2v-1.3a1.3 1.3 0 00-2.6 0v1.3h-5.2v-3.9a1.3 1.3 0 00-2.6 0v3.9H26v-1.3a1.3 1.3 0 00-2.6 0v1.3h-5.2v-1.3a1.3 1.3 0 00-2.6 0v1.3h-5.2v-3.9a1.3 1.3 0 00-2.6 0v3.9H2.6v-13h58.5c.344 0 .676-.137.919-.382l1.68-1.68 1.682 1.68c.243.245.574.381.919.381h9.1v13H61.1a1.3 1.3 0 000 2.6h15.6a1.3 1.3 0 001.3-1.3V3.9a1.3 1.3 0 00-1.3-1.3zm-6.5 9.1c0-1.434-1.166-2.6-2.6-2.6a2.603 2.603 0 00-2.6 2.6c0 1.434 1.166 2.6 2.6 2.6 1.434 0 2.6-1.166 2.6-2.6zM10.4 65c0 1.434 1.166 2.6 2.6 2.6 1.434 0 2.6-1.166 2.6-2.6 0-1.434-1.166-2.6-2.6-2.6a2.603 2.603 0 00-2.6 2.6zm55.52-41.22a1.299 1.299 0 00-1.838 0L13 74.861 3.138 65 15.6 52.538l1.681 1.681a1.296 1.296 0 001.838 0 1.299 1.299 0 000-1.838L17.44 50.7l3.361-3.362 1.681 1.681a1.296 1.296 0 001.838 0 1.299 1.299 0 000-1.838L22.64 45.5 26 42.138l4.281 4.281a1.296 1.296 0 001.838 0 1.299 1.299 0 000-1.838L27.84 40.3l3.361-3.362 1.681 1.681a1.296 1.296 0 001.838 0 1.299 1.299 0 000-1.838l-1.68-1.68 3.361-3.363 1.68 1.681a1.296 1.296 0 001.84 0 1.299 1.299 0 000-1.838l-1.682-1.68 3.362-3.363 4.28 4.281a1.3 1.3 0 001.84 0 1.299 1.299 0 000-1.838l-5.2-5.2a1.299 1.299 0 00-1.84 0L.382 64.081a1.299 1.299 0 000 1.838l11.7 11.7a1.297 1.297 0 001.838 0l52-52a1.299 1.299 0 000-1.838zM77.999 58.5v15.6a1.3 1.3 0 01-1.3 1.3H22.1a1.3 1.3 0 010-2.6h53.3v-13h-5.2v3.9a1.3 1.3 0 01-2.6 0v-3.9h-5.2v1.3a1.3 1.3 0 01-2.6 0v-1.3h-5.2v1.3a1.3 1.3 0 01-2.6 0v-1.3h-5.2v3.9a1.3 1.3 0 01-2.6 0v-3.9H39v1.3a1.3 1.3 0 01-2.6 0v-2.6a1.3 1.3 0 011.3-1.3h39a1.3 1.3 0 011.3 1.3z"/></symbol><symbol viewBox="0 0 80 89" id="r2" xmlns="http://www.w3.org/2000/svg"><path d="M2 23.093l-.728-1.312A1.5 1.5 0 00.5 23.093H2zm0 42.5H.5a1.5 1.5 0 00.764 1.306L2 65.594zM40 87l-.736 1.307a1.5 1.5 0 001.472 0L40 87zm38-21.407l.736 1.306a1.5 1.5 0 00.764-1.306H78zm0-42.5h1.5a1.5 1.5 0 00-.772-1.312L78 23.093zM40 2l.728-1.312a1.5 1.5 0 00-1.456 0L40 2zM2.736 23.36a1.5 1.5 0 00-1.472 2.614l1.472-2.614zm76 2.614a1.5 1.5 0 00-1.472-2.614l1.472 2.614zM.5 23.093v42.5h3v-42.5h-3zm.764 43.806l38 21.408 1.472-2.614-38-21.407L1.264 66.9zm39.472 21.408l38-21.407-1.472-2.614-38 21.407 1.472 2.614zM79.5 65.593v-42.5h-3v42.5h3zm-.772-43.812l-38-21.093-1.456 2.624 38 21.092 1.456-2.623zM39.272.688l-38 21.093 1.456 2.623 38-21.092L39.272.688zM1.264 25.974l38 21.407 1.472-2.614-38-21.407-1.472 2.614zM40.736 47.38l38-21.407-1.472-2.614-38 21.407 1.472 2.614zM41.5 87V46.074h-3V87h3z"/></symbol><symbol viewBox="0 0 63 80" id="r3" xmlns="http://www.w3.org/2000/svg"><path d="M60.861 24.51V78H2V2h36.188"/><path d="M60.078 25.288h-21.89a.78.78 0 01-.784-.778V2.778A.78.78 0 0138.187 2l22.674 22.51a.78.78 0 01-.783.778zM14.92 51.645h34.036M14.92 39.139h34.036M14.92 64.152h34.036"/></symbol><symbol viewBox="0 0 74 74" id="r4" xmlns="http://www.w3.org/2000/svg"><path d="M56.62 34.892H39.24V17.415H21.86V0H0v74h74V52.305H56.62V34.892zm4.345 21.77h8.69v12.99H4.48V4.396h13.036v17.37h17.381v17.413h17.311v17.483h8.757z"/></symbol><symbol viewBox="0 0 103 57" id="r5" xmlns="http://www.w3.org/2000/svg"><path d="M74.768 2v45.107h-32.04a8.026 8.026 0 00-16.019 0h-8.126V2h56.185zM101.5 31.187v15.92h-5.34a8.027 8.027 0 00-16.02 0h-5.372v-31.84h11.177l15.555 15.92z"/><path d="M101.5 31.186v15.92h-5.34a8.027 8.027 0 00-16.02 0h-5.372v-15.92H101.5zM34.702 55.067c4.433 0 8.027-3.563 8.027-7.96 0-4.396-3.594-7.96-8.027-7.96-4.432 0-8.026 3.564-8.026 7.96 0 4.397 3.594 7.96 8.026 7.96z"/><path d="M88.134 55.067c4.433 0 8.026-3.563 8.026-7.96 0-4.396-3.593-7.96-8.026-7.96s-8.027 3.564-8.027 7.96c0 4.397 3.594 7.96 8.027 7.96zM2 7.305h8.656M2 17.92h8.656M2 28.533h8.656"/></symbol><symbol viewBox="0 0 74 74" id="r6" xmlns="http://www.w3.org/2000/svg"><path d="M55.5 32.511V12.913L42.582 0H0v74h55.5v-.136c10.404-1.157 18.495-9.965 18.5-20.677-.005-10.716-8.096-19.526-18.5-20.676zM41.62 5.581l8.298 8.294H41.62V5.58zM4.625 69.374V4.62H37v13.878h13.875V32.51A20.713 20.713 0 0040.117 37H9.25v4.625h26.633a20.702 20.702 0 00-2.299 4.625H9.25v4.625h23.261a20.76 20.76 0 00-.136 2.313c0 6.542 3.025 12.374 7.745 16.187H4.625zm48.563-.27c-8.79-.021-15.901-7.132-15.922-15.918.02-8.79 7.132-15.9 15.922-15.921 8.785.02 15.896 7.132 15.916 15.922-.02 8.785-7.131 15.896-15.916 15.916zM46.25 27.75h-37v4.625h37V27.75z"/><path d="M41.625 53.188l4.625-4.626 4.625 4.626 9.25-9.25 4.625 4.624-13.875 13.876-9.25-9.25z"/></symbol><symbol viewBox="0 0 39 18" id="slider" xmlns="http://www.w3.org/2000/svg"><path d="M38.713 8.284L27.654.297a.954.954 0 00-1.383 0 1.037 1.037 0 000 1.431l9.39 6.26H.978C.438 7.988 0 8.44 0 9s.437 1.013.978 1.013h34.683l-9.39 6.259a1.037 1.037 0 000 1.431.958.958 0 001.383 0l11.06-7.987a1.037 1.037 0 000-1.432z"/></symbol><symbol viewBox="0 0 290 260" id="stairs" xmlns="http://www.w3.org/2000/svg"><path d="M210 0h80v260h-80zM105 80h80v180h-80V80zM0 160h80v100H0V160z"/></symbol><symbol viewBox="0 0 18 26" id="tel" xmlns="http://www.w3.org/2000/svg"><path d="M15.124 0H2.876C1.305 0 0 1.31 0 2.923v20.154C0 24.691 1.275 26 2.876 26h12.248C16.695 26 18 24.69 18 23.077V2.923C18 1.309 16.725 0 15.124 0zm1.986 23.077c0 1.127-.89 2.01-1.986 2.01H2.876c-1.097 0-1.986-.914-1.986-2.01V2.923c0-1.127.89-2.01 1.986-2.01h12.248c1.097 0 1.986.914 1.986 2.01v20.154z"/><path d="M12.633 2.892H5.308a.462.462 0 00-.445.457c0 .244.208.457.445.457h7.325a.462.462 0 00.444-.457.462.462 0 00-.444-.457zM8.985 20.337c-.83 0-1.483.7-1.483 1.523 0 .395.149.791.445 1.065.267.274.653.426 1.038.426.83 0 1.483-.7 1.483-1.522 0-.822-.653-1.492-1.483-1.492zm.03 2.131a.578.578 0 01-.415-.182.609.609 0 01-.178-.427c0-.334.267-.608.593-.608.326 0 .593.274.593.608a.603.603 0 01-.593.61z"/></symbol><symbol viewBox="0 0 46 46" id="tool" xmlns="http://www.w3.org/2000/svg"><path d="M24.714 32.872l-.526-.534a.75.75 0 000 1.068l.526-.534zm7.885-7.776l.527-.534a.75.75 0 00-1.053 0l.526.534zm10.628 10.48l-.526.535a.704.704 0 00.021.02l.505-.554zM6.201 1.602l.377-.648a.75.75 0 00-.912.123L6.2 1.6zm-5.143 5.24l-.535-.525a.75.75 0 00-.108.91l.643-.385zm3.943 6.592l-.644.385a.75.75 0 00.26.26L5 13.432zm6.514 3.888l.527-.534a.747.747 0 00-.143-.11l-.384.644zm14.57 14.368l-.526.534a.75.75 0 001.053 0l-.526-.534zm5.314-5.24l.527.534a.75.75 0 000-1.068l-.526.534zM16.83 12.08l-.644.385a.75.75 0 00.117.149l.527-.534zm-3.943-6.592l.644-.385a.75.75 0 00-.267-.264l-.377.649zM32.6 18.335l.257-.705a.75.75 0 00-.783.171l.526.534zm9.771-2.028l-.526-.534a.69.69 0 00-.017.017l.543.517zm2.057-9.635l.703-.263a.75.75 0 00-1.23-.271l.527.534zm-4.457 4.395l-.18.728a.75.75 0 00.707-.194l-.527-.534zm-4.114-1.014l-.727.184a.75.75 0 00.548.544l.18-.728zm-1.028-4.057l-.527-.534a.75.75 0 00-.2.718l.727-.184zM39.285 1.6l.526.534a.75.75 0 00-.27-1.239l-.256.705zm-9.771 2.028l.527.534a.956.956 0 00.017-.017l-.544-.517zm-2.057 9.635l.526.534a.75.75 0 00.176-.796l-.702.262zM13.4 27.124l-.256.706a.75.75 0 00.782-.171l-.526-.534zm-9.771 2.03l.526.533a.691.691 0 00.017-.017l-.543-.517zm-2.057 9.634l-.703.263a.75.75 0 001.23.271l-.527-.534zm4.457-4.395l.18-.728a.75.75 0 00-.707.194l.527.534zm4.114 1.014l.727-.184a.75.75 0 00-.548-.544l-.18.728zm1.028 4.057l.527.534a.75.75 0 00.2-.718l-.727.184zM6.715 43.86l-.526-.534a.75.75 0 00.27 1.239l.256-.705zm9.771-2.028l-.527-.534-.016.017.543.517zm2.057-9.635l-.526-.534a.75.75 0 00-.176.796l.702-.262zm24.158 10.622c-1.937 1.91-4.896 1.91-6.832 0l-1.053 1.068c2.52 2.485 6.417 2.485 8.938 0l-1.053-1.068zm-6.832 0L25.24 32.338l-1.053 1.068 10.628 10.48 1.053-1.068zM25.24 33.406l7.885-7.775-1.053-1.069-7.885 7.776 1.053 1.068zm6.832-7.775L42.7 36.11l1.053-1.069-10.628-10.48-1.053 1.069zm10.65 10.5c1.889 1.72 1.92 4.77-.022 6.687l1.053 1.068c2.514-2.479 2.546-6.527-.022-8.864l-1.01 1.11zM5.665 1.076L.523 6.316l1.07 1.05 5.143-5.24-1.07-1.05zm-5.25 6.15l3.942 6.592 1.288-.77-3.943-6.592-1.287.77zm4.202 6.851l6.514 3.888.768-1.288-6.514-3.888-.768 1.288zm6.371 3.778l14.57 14.368 1.054-1.068-14.57-14.368-1.054 1.068zm15.624 14.368l5.314-5.24-1.053-1.068-5.314 5.24 1.053 1.068zm5.314-6.308l-14.57-14.368-1.054 1.068 14.57 14.368 1.054-1.068zM17.473 11.696L13.53 5.104l-1.287.77 3.942 6.592 1.288-.77zm-4.21-6.856L6.578.953l-.754 1.296 6.685 3.888.754-1.297zm15.235 18.593l4.628-4.564-1.053-1.068-4.628 4.564 1.053 1.068zm3.845-4.393c3.481 1.265 7.756.744 10.57-2.216l-1.086-1.034c-2.328 2.448-5.939 2.942-8.971 1.84l-.513 1.41zm10.554-2.2c2.796-2.757 3.529-6.962 2.233-10.43l-1.405.524c1.103 2.955.465 6.525-1.881 8.839l1.053 1.068zM43.9 6.139l-4.457 4.395 1.053 1.068 4.457-4.395L43.9 6.138zm-3.751 4.2l-4.114-1.014-.36 1.457 4.115 1.014.359-1.456zm-3.567-.47l-1.028-4.056-1.454.368 1.028 4.057 1.454-.369zM35.355 6.53l4.456-4.395-1.053-1.068-4.457 4.395 1.053 1.068zM39.54.896C36.06-.369 31.785.152 28.97 3.113l1.087 1.033c2.327-2.448 5.938-2.942 8.97-1.84l.513-1.41zm-10.554 2.2c-2.796 2.757-3.529 6.962-2.233 10.43l1.405-.524c-1.103-2.955-.465-6.525 1.882-8.839l-1.054-1.068zM26.93 12.73l-4.628 4.564 1.053 1.068 4.628-4.564-1.053-1.068zm-10.113 9.973l-3.943 3.888 1.053 1.068 3.943-3.888-1.053-1.068zm-3.16 3.717c-3.481-1.265-7.756-.744-10.57 2.216l1.086 1.034c2.328-2.448 5.939-2.942 8.972-1.84l.512-1.41zm-10.554 2.2C.307 31.376-.426 35.581.87 39.05l1.405-.524C1.172 35.57 1.81 32 4.156 29.687L3.103 28.62zM2.1 39.321l4.457-4.395-1.053-1.068-4.457 4.395L2.1 39.322zm3.751-4.2l4.114 1.014.36-1.457-4.115-1.014-.359 1.456zm3.567.47l1.028 4.056 1.454-.368-1.028-4.057-1.454.369zm1.229 3.338L6.19 43.324l1.053 1.068 4.457-4.395-1.053-1.068zM6.46 44.563c3.481 1.265 7.756.744 10.57-2.217l-1.086-1.033c-2.328 2.448-5.939 2.942-8.972 1.84l-.512 1.41zm10.554-2.2c2.796-2.757 3.529-6.962 2.233-10.43l-1.405.524c1.103 2.955.465 6.525-1.882 8.839l1.054 1.068zm2.057-9.634l4.114-4.057-1.053-1.068-4.114 4.057 1.053 1.068z"/></symbol></svg>