<?xml version="1.0" encoding="utf-8"?><svg xmlns="http://www.w3.org/2000/svg" xmlns:xlink="http://www.w3.org/1999/xlink"><symbol viewBox="0 0 45 12" id="arrow" xmlns="http://www.w3.org/2000/svg"><path d="M44.802 5.523L37.145.198a.678.678 0 00-.957 0 .673.673 0 000 .954l6.5 4.173H.678a.676.676 0 100 1.35h42.01l-6.5 4.173A.673.673 0 0036.667 12a.676.676 0 00.478-.198l7.657-5.325a.673.673 0 000-.954z"/></symbol><symbol viewBox="0 0 35 45" id="calc" xmlns="http://www.w3.org/2000/svg"><path d="M34.06 0H.94a.94.94 0 00-.665.277.951.951 0 00-.275.67v43.106c0 .25.099.492.275.67A.936.936 0 00.94 45h33.12c.25 0 .488-.1.665-.278a.95.95 0 00.275-.67V.948a.951.951 0 00-.275-.67A.936.936 0 0034.06 0zm-.94 43.105H1.88V1.895h31.24v41.21z"/><path d="M7.632 13.358h19.736c.25 0 .489-.1.665-.278a.951.951 0 00.275-.67V6.974a.95.95 0 00-.275-.67.936.936 0 00-.665-.278H7.632c-.25 0-.489.1-.665.278a.951.951 0 00-.275.67v5.438c0 .25.099.492.275.67a.936.936 0 00.665.277zm.94-5.438h17.857v3.543H8.57V7.92zm.3 13.794c.841 0 1.523-.687 1.523-1.535 0-.848-.682-1.535-1.523-1.535-.84 0-1.522.687-1.522 1.535 0 .848.681 1.535 1.522 1.535zm5.752 0a1.53 1.53 0 001.523-1.535c0-.848-.682-1.535-1.523-1.535a1.53 1.53 0 00-1.523 1.535c0 .848.682 1.535 1.523 1.535zm5.752 0c.84 0 1.522-.687 1.522-1.535 0-.848-.681-1.535-1.522-1.535a1.53 1.53 0 00-1.523 1.535c0 .848.682 1.535 1.523 1.535zm5.771 0c.84 0 1.522-.687 1.522-1.535 0-.848-.681-1.535-1.522-1.535s-1.523.687-1.523 1.535c0 .848.682 1.535 1.523 1.535zM8.872 28.933c.851 0 1.542-.696 1.542-1.554 0-.858-.69-1.554-1.542-1.554-.851 0-1.541.696-1.541 1.554 0 .858.69 1.554 1.541 1.554zm5.752 0c.851 0 1.541-.696 1.541-1.554 0-.858-.69-1.554-1.54-1.554-.852 0-1.542.696-1.542 1.554 0 .858.69 1.554 1.541 1.554zm5.752 0c.851 0 1.541-.696 1.541-1.554 0-.858-.69-1.554-1.541-1.554s-1.541.696-1.541 1.554c0 .858.69 1.554 1.54 1.554zm5.771 0c.85 0 1.541-.696 1.541-1.554 0-.858-.69-1.554-1.541-1.554-.852 0-1.542.696-1.542 1.554 0 .858.69 1.554 1.542 1.554zm-17.275 7.2c.851 0 1.542-.696 1.542-1.554 0-.858-.69-1.554-1.542-1.554-.851 0-1.541.696-1.541 1.554 0 .858.69 1.554 1.541 1.554zm5.752 0c.851 0 1.541-.696 1.541-1.554 0-.858-.69-1.554-1.54-1.554-.852 0-1.542.696-1.542 1.554 0 .858.69 1.554 1.541 1.554zm5.752 0c.851 0 1.541-.696 1.541-1.554 0-.858-.69-1.554-1.541-1.554s-1.541.696-1.541 1.554c0 .858.69 1.554 1.54 1.554zm5.771 0c.85 0 1.541-.696 1.541-1.554 0-.858-.69-1.554-1.541-1.554-.852 0-1.542.696-1.542 1.554 0 .858.69 1.554 1.542 1.554z"/></symbol><symbol viewBox="0 0 32 32" id="close" xmlns="http://www.w3.org/2000/svg"><defs><style>.ccls-1{fill:none;stroke:#000;stroke-linecap:round;stroke-linejoin:round;stroke-width:2px}</style></defs><path class="ccls-1" d="M7 7l18 18M7 25L25 7" id="ccross"/></symbol><symbol viewBox="0 0 240 265" id="cube" xmlns="http://www.w3.org/2000/svg"><path d="M120 128.106l113.538-65.671L124.615 1.387c-2.769-1.85-6.461-1.85-9.23 0L6.462 63.36 120 128.106zm-9.231 16.65L0 80.934v115.619c0 3.7 1.846 6.475 4.615 8.325L110.77 265V144.756zm18.462 0V265l106.154-60.122c2.769-1.85 4.615-4.625 4.615-8.325V80.933l-110.769 63.823z"/></symbol><symbol viewBox="0 0 199 265" id="doc" xmlns="http://www.w3.org/2000/svg"><path d="M197.687 72.323c-.622-1.518-1.382-2.967-2.418-4.21L137.365 4.831c-1.313-1.45-2.902-2.485-4.629-3.382C130.732.414 128.521 0 126.172 0H15.685C7.117 0 0 7.315 0 16.494v231.322C0 257.064 7.117 265 15.685 265H183.66c8.568 0 15.34-7.936 15.34-17.184V79.362c0-2.484-.345-4.9-1.313-7.04zM33.167 78.81c0-1.035 1.243-1.45 2.349-1.45h48.92c1.106 0 1.935.415 1.935 1.45v7.453c0 .966-.76 2.14-1.934 2.14H35.516c-1.106 0-2.35-1.174-2.35-2.14V78.81zm0 88.333c0-1.035 1.243-1.449 2.349-1.449h84.437c1.105 0 1.658.414 1.658 1.449v7.453c0 .966-.484 2.14-1.658 2.14H35.516c-1.106 0-2.35-1.174-2.35-2.14v-7.453zm110.555 51.62c0 .966-.483 2.139-1.658 2.139H35.516c-1.106 0-2.35-1.173-2.35-2.139v-7.453c0-1.035 1.244-1.449 2.35-1.449h106.548c1.105 0 1.658.414 1.658 1.449v7.453zm22.111-88.333c0 .966-.483 2.139-1.658 2.139H35.516c-1.106 0-2.35-1.173-2.35-2.139v-7.453c0-1.036 1.244-1.45 2.35-1.45h128.659c1.106 0 1.658.414 1.658 1.45v7.453zm-32.406-52.38c-3.87 0-7.67-3.588-7.67-7.797V24.706l49.197 53.345h-41.527z"/></symbol><symbol viewBox="0 0 57 42" id="piram" xmlns="http://www.w3.org/2000/svg"><path d="M56.352 37.043H.648a.649.649 0 00-.648.646v3.665c0 .355.291.646.648.646h55.704c.36 0 .648-.29.648-.646v-3.665a.646.646 0 00-.648-.646zm-.647 3.665H1.295v-2.373h54.41v2.373zM3.461 32.739H53.54c.358 0 .647-.29.647-.646v-3.664a.647.647 0 00-.648-.646H3.462a.647.647 0 00-.647.646v3.664c0 .356.287.646.647.646zm.648-3.664h48.782v2.37H4.109v-2.37zm2.166-5.598h44.452c.357 0 .648-.29.648-.646v-3.665a.649.649 0 00-.648-.646H6.275a.647.647 0 00-.648.646v3.665c0 .358.288.646.648.646zm.648-3.665H50.08v2.373H6.923v-2.373zm2.166-5.595h38.825c.356 0 .647-.29.647-.646V9.906a.649.649 0 00-.647-.646H9.089a.647.647 0 00-.648.646v3.665c0 .355.288.646.648.646zm.648-3.665h37.529v2.373H9.736v-2.373zM11.9 4.956h33.2a.65.65 0 00.648-.646V.646A.649.649 0 0045.1 0H11.9a.649.649 0 00-.648.646V4.31c0 .355.29.646.648.646zm.648-3.665h31.904v2.37H12.548V1.29z"/></symbol><symbol viewBox="0 0 290 260" id="stairs" xmlns="http://www.w3.org/2000/svg"><path d="M210 0h80v260h-80zM105 80h80v180h-80V80zM0 160h80v100H0V160z"/></symbol><symbol viewBox="0 0 46 46" id="tool" xmlns="http://www.w3.org/2000/svg"><path d="M24.714 32.872l-.526-.534a.75.75 0 000 1.068l.526-.534zm7.885-7.776l.527-.534a.75.75 0 00-1.053 0l.526.534zm10.628 10.48l-.526.535a.704.704 0 00.021.02l.505-.554zM6.201 1.602l.377-.648a.75.75 0 00-.912.123L6.2 1.6zm-5.143 5.24l-.535-.525a.75.75 0 00-.108.91l.643-.385zm3.943 6.592l-.644.385a.75.75 0 00.26.26L5 13.432zm6.514 3.888l.527-.534a.747.747 0 00-.143-.11l-.384.644zm14.57 14.368l-.526.534a.75.75 0 001.053 0l-.526-.534zm5.314-5.24l.527.534a.75.75 0 000-1.068l-.526.534zM16.83 12.08l-.644.385a.75.75 0 00.117.149l.527-.534zm-3.943-6.592l.644-.385a.75.75 0 00-.267-.264l-.377.649zM32.6 18.335l.257-.705a.75.75 0 00-.783.171l.526.534zm9.771-2.028l-.526-.534a.69.69 0 00-.017.017l.543.517zm2.057-9.635l.703-.263a.75.75 0 00-1.23-.271l.527.534zm-4.457 4.395l-.18.728a.75.75 0 00.707-.194l-.527-.534zm-4.114-1.014l-.727.184a.75.75 0 00.548.544l.18-.728zm-1.028-4.057l-.527-.534a.75.75 0 00-.2.718l.727-.184zM39.285 1.6l.526.534a.75.75 0 00-.27-1.239l-.256.705zm-9.771 2.028l.527.534a.956.956 0 00.017-.017l-.544-.517zm-2.057 9.635l.526.534a.75.75 0 00.176-.796l-.702.262zM13.4 27.124l-.256.706a.75.75 0 00.782-.171l-.526-.534zm-9.771 2.03l.526.533a.691.691 0 00.017-.017l-.543-.517zm-2.057 9.634l-.703.263a.75.75 0 001.23.271l-.527-.534zm4.457-4.395l.18-.728a.75.75 0 00-.707.194l.527.534zm4.114 1.014l.727-.184a.75.75 0 00-.548-.544l-.18.728zm1.028 4.057l.527.534a.75.75 0 00.2-.718l-.727.184zM6.715 43.86l-.526-.534a.75.75 0 00.27 1.239l.256-.705zm9.771-2.028l-.527-.534-.016.017.543.517zm2.057-9.635l-.526-.534a.75.75 0 00-.176.796l.702-.262zm24.158 10.622c-1.937 1.91-4.896 1.91-6.832 0l-1.053 1.068c2.52 2.485 6.417 2.485 8.938 0l-1.053-1.068zm-6.832 0L25.24 32.338l-1.053 1.068 10.628 10.48 1.053-1.068zM25.24 33.406l7.885-7.775-1.053-1.069-7.885 7.776 1.053 1.068zm6.832-7.775L42.7 36.11l1.053-1.069-10.628-10.48-1.053 1.069zm10.65 10.5c1.889 1.72 1.92 4.77-.022 6.687l1.053 1.068c2.514-2.479 2.546-6.527-.022-8.864l-1.01 1.11zM5.665 1.076L.523 6.316l1.07 1.05 5.143-5.24-1.07-1.05zm-5.25 6.15l3.942 6.592 1.288-.77-3.943-6.592-1.287.77zm4.202 6.851l6.514 3.888.768-1.288-6.514-3.888-.768 1.288zm6.371 3.778l14.57 14.368 1.054-1.068-14.57-14.368-1.054 1.068zm15.624 14.368l5.314-5.24-1.053-1.068-5.314 5.24 1.053 1.068zm5.314-6.308l-14.57-14.368-1.054 1.068 14.57 14.368 1.054-1.068zM17.473 11.696L13.53 5.104l-1.287.77 3.942 6.592 1.288-.77zm-4.21-6.856L6.578.953l-.754 1.296 6.685 3.888.754-1.297zm15.235 18.593l4.628-4.564-1.053-1.068-4.628 4.564 1.053 1.068zm3.845-4.393c3.481 1.265 7.756.744 10.57-2.216l-1.086-1.034c-2.328 2.448-5.939 2.942-8.971 1.84l-.513 1.41zm10.554-2.2c2.796-2.757 3.529-6.962 2.233-10.43l-1.405.524c1.103 2.955.465 6.525-1.881 8.839l1.053 1.068zM43.9 6.139l-4.457 4.395 1.053 1.068 4.457-4.395L43.9 6.138zm-3.751 4.2l-4.114-1.014-.36 1.457 4.115 1.014.359-1.456zm-3.567-.47l-1.028-4.056-1.454.368 1.028 4.057 1.454-.369zM35.355 6.53l4.456-4.395-1.053-1.068-4.457 4.395 1.053 1.068zM39.54.896C36.06-.369 31.785.152 28.97 3.113l1.087 1.033c2.327-2.448 5.938-2.942 8.97-1.84l.513-1.41zm-10.554 2.2c-2.796 2.757-3.529 6.962-2.233 10.43l1.405-.524c-1.103-2.955-.465-6.525 1.882-8.839l-1.054-1.068zM26.93 12.73l-4.628 4.564 1.053 1.068 4.628-4.564-1.053-1.068zm-10.113 9.973l-3.943 3.888 1.053 1.068 3.943-3.888-1.053-1.068zm-3.16 3.717c-3.481-1.265-7.756-.744-10.57 2.216l1.086 1.034c2.328-2.448 5.939-2.942 8.972-1.84l.512-1.41zm-10.554 2.2C.307 31.376-.426 35.581.87 39.05l1.405-.524C1.172 35.57 1.81 32 4.156 29.687L3.103 28.62zM2.1 39.321l4.457-4.395-1.053-1.068-4.457 4.395L2.1 39.322zm3.751-4.2l4.114 1.014.36-1.457-4.115-1.014-.359 1.456zm3.567.47l1.028 4.056 1.454-.368-1.028-4.057-1.454.369zm1.229 3.338L6.19 43.324l1.053 1.068 4.457-4.395-1.053-1.068zM6.46 44.563c3.481 1.265 7.756.744 10.57-2.217l-1.086-1.033c-2.328 2.448-5.939 2.942-8.972 1.84l-.512 1.41zm10.554-2.2c2.796-2.757 3.529-6.962 2.233-10.43l-1.405.524c1.103 2.955.465 6.525-1.882 8.839l1.054 1.068zm2.057-9.634l4.114-4.057-1.053-1.068-4.114 4.057 1.053 1.068z"/></symbol></svg>