<?xml version="1.0" standalone="no"?>
<!DOCTYPE svg PUBLIC "-//W3C//DTD SVG 20010904//EN"
 "http://www.w3.org/TR/2001/REC-SVG-20010904/DTD/svg10.dtd">
<svg version="1.0" xmlns="http://www.w3.org/2000/svg"
 width="384.000000pt" height="384.000000pt" viewBox="0 0 384.000000 384.000000"
 preserveAspectRatio="xMidYMid meet">
<metadata>
Created by potrace 1.11, written by Peter Selinger 2001-2013
</metadata>
<g transform="translate(0.000000,384.000000) scale(0.100000,-0.100000)"
fill="#000000" stroke="none">
<path d="M1800 3837 c-3 -3 -84 -8 -180 -11 -96 -4 -193 -8 -215 -11 -22 -2
-60 -6 -85 -9 -25 -3 -69 -8 -99 -11 -30 -4 -59 -9 -63 -11 -5 -3 -21 -7 -36
-9 -23 -3 -91 -18 -142 -30 -79 -20 -136 -39 -184 -60 -31 -14 -56 -23 -56
-20 0 5 -20 -6 -130 -68 -65 -37 -171 -118 -218 -167 -45 -48 -132 -163 -131
-174 0 -5 -4 -12 -9 -15 -12 -8 -57 -93 -54 -103 1 -5 -3 -8 -8 -8 -6 0 -10
-5 -10 -10 0 -6 -16 -51 -35 -101 -20 -49 -33 -94 -30 -100 4 -5 2 -9 -2 -9
-5 0 -10 -12 -11 -27 -1 -16 -7 -30 -12 -31 -6 -2 -8 -7 -6 -11 3 -4 -4 -46
-15 -95 -11 -48 -17 -91 -14 -96 3 -5 1 -11 -4 -14 -5 -3 -8 -20 -7 -37 1 -16
-1 -32 -4 -34 -4 -2 -6 -20 -5 -40 2 -19 0 -37 -4 -40 -4 -2 -6 -22 -5 -45 1
-22 -1 -40 -5 -40 -7 0 -16 -277 -16 -480 0 -205 10 -480 17 -480 3 0 6 -17 6
-38 0 -20 1 -39 2 -42 1 -3 4 -23 6 -45 7 -66 11 -100 13 -100 1 0 4 -19 7
-43 5 -57 59 -267 85 -337 11 -30 20 -58 20 -62 0 -5 8 -16 16 -25 9 -10 13
-18 9 -18 -8 0 75 -154 86 -158 4 -2 8 -9 8 -16 0 -7 14 -27 30 -45 17 -17 28
-31 24 -31 -3 0 8 -12 25 -26 17 -14 29 -30 25 -35 -3 -5 -1 -9 4 -9 5 0 28
-18 51 -40 22 -22 44 -40 47 -40 3 0 11 -6 19 -12 34 -34 251 -159 270 -157 3
0 31 -9 63 -21 31 -12 66 -23 77 -24 12 -1 27 -6 33 -10 7 -4 23 -9 35 -11 12
-2 76 -14 142 -28 66 -14 127 -25 135 -26 8 0 35 -3 60 -6 176 -20 346 -28
605 -28 280 1 429 8 595 28 25 3 67 8 95 11 27 2 54 9 59 14 4 4 14 6 20 4 19
-7 257 53 335 85 39 16 71 27 71 25 0 -8 184 98 188 108 2 4 8 8 13 8 14 0 47
28 134 115 87 87 115 120 115 134 0 5 4 11 9 13 7 2 62 97 93 160 4 10 13 27
18 38 6 11 10 25 10 30 0 6 9 30 20 54 10 23 21 54 24 67 8 38 13 59 34 144
11 44 23 98 26 120 14 89 17 112 21 150 2 22 6 65 9 95 14 129 18 261 18 515
0 291 -6 418 -27 595 -3 25 -7 57 -8 72 -1 14 -5 29 -9 33 -4 4 -4 13 -1 21 3
8 0 20 -6 28 -6 7 -8 15 -5 18 3 3 -5 48 -17 99 -13 52 -22 97 -21 102 1 4 -3
7 -9 7 -5 0 -8 4 -4 9 3 5 -6 40 -20 78 -14 37 -27 73 -28 78 -2 6 -7 17 -12
25 -5 8 -10 20 -11 26 -3 21 -107 196 -130 219 -14 14 -22 25 -19 25 4 0 -7
12 -24 26 -17 14 -29 30 -25 35 3 5 1 9 -4 9 -4 0 -33 23 -62 50 -29 28 -57
50 -60 50 -4 0 -19 10 -33 23 -25 21 -206 118 -231 124 -6 1 -48 16 -94 32
-45 17 -84 31 -87 31 -3 0 -6 0 -7 1 -2 0 -12 2 -23 3 -11 2 -47 10 -80 19
-59 15 -112 25 -184 34 -20 2 -49 6 -66 8 -149 19 -713 44 -725 32z m339 -560
c19 -4 37 -10 40 -15 3 -5 13 -9 21 -10 51 -3 98 -10 109 -16 6 -4 18 -5 26
-2 8 3 15 2 15 -2 0 -4 26 -16 58 -26 31 -9 74 -26 94 -37 20 -10 44 -19 52
-19 8 0 16 -4 18 -9 2 -5 10 -11 18 -13 14 -3 29 -13 54 -35 8 -7 16 -10 18
-8 3 3 20 -9 38 -25 30 -27 43 -34 61 -32 3 1 12 -10 19 -23 7 -14 17 -25 21
-25 12 0 109 -98 109 -110 0 -6 5 -8 10 -5 6 3 13 -2 17 -12 4 -10 17 -26 30
-36 13 -10 21 -23 18 -27 -3 -5 3 -18 14 -29 11 -11 28 -35 37 -53 9 -18 25
-44 35 -57 11 -13 19 -32 19 -42 0 -11 4 -19 8 -19 5 0 14 -12 21 -26 10 -22
9 -28 -6 -39 -9 -7 -23 -11 -29 -8 -7 2 -15 0 -18 -6 -4 -6 -13 -8 -21 -5 -8
4 -18 -1 -21 -10 -3 -9 -10 -13 -15 -10 -5 3 -9 1 -9 -4 0 -9 -47 -27 -62 -24
-5 1 -8 -3 -8 -9 0 -5 -4 -7 -10 -4 -5 3 -10 1 -10 -4 0 -6 -4 -11 -9 -11 -5
0 -26 -8 -47 -17 -22 -9 -46 -18 -54 -19 -8 -2 -16 -7 -18 -13 -5 -14 -32 -2
-32 15 0 8 -4 14 -9 14 -5 0 -7 9 -4 20 3 12 -1 22 -11 26 -9 3 -13 10 -10 15
3 5 -1 12 -10 15 -8 3 -13 14 -11 25 2 11 0 17 -4 15 -7 -5 -41 28 -41 41 0 3
-31 36 -69 72 -85 80 -98 91 -109 91 -5 0 -16 7 -23 16 -7 9 -37 28 -66 41
-29 14 -53 30 -53 36 0 6 -3 7 -7 4 -3 -4 -11 -3 -17 2 -6 5 -31 14 -56 21
-25 7 -51 17 -58 23 -8 6 -21 12 -30 13 -10 2 -35 5 -57 9 -22 3 -53 6 -68 5
-16 0 -26 4 -23 9 8 12 -31 19 -114 20 -74 1 -123 -7 -115 -19 3 -4 -2 -10
-10 -14 -8 -3 -15 -1 -15 4 0 6 -9 6 -24 0 -13 -5 -33 -9 -43 -9 -56 -2 -73
-6 -73 -18 0 -7 -9 -13 -20 -13 -11 0 -20 -4 -20 -9 0 -6 -9 -8 -19 -6 -11 2
-25 -3 -32 -11 -6 -8 -17 -14 -24 -14 -8 0 -27 -11 -43 -25 -17 -14 -34 -25
-39 -25 -6 0 -21 -10 -35 -22 -14 -13 -34 -30 -44 -40 -37 -31 -97 -98 -90
-98 4 0 -2 -9 -12 -20 -10 -11 -25 -33 -33 -48 -8 -15 -21 -32 -29 -39 -8 -7
-11 -13 -6 -13 5 0 2 -7 -5 -16 -8 -9 -14 -22 -15 -28 0 -6 -2 -19 -2 -29 -1
-10 -6 -15 -12 -12 -5 3 -11 1 -11 -4 -2 -15 -4 -23 -14 -44 -4 -10 -5 -20 -2
-24 4 -3 -1 -19 -9 -35 -8 -16 -12 -33 -9 -38 3 -6 2 -10 -4 -10 -6 0 -8 -7
-5 -15 4 -8 2 -15 -3 -15 -10 0 -12 -7 -14 -57 -1 -16 -6 -34 -11 -40 -7 -9
-7 -13 0 -13 7 0 7 -12 0 -37 -11 -44 -18 -223 -9 -223 4 0 7 -8 8 -17 3 -48
11 -128 13 -128 3 0 10 -47 13 -78 1 -15 7 -25 13 -23 6 2 11 -1 11 -7 3 -50
9 -77 16 -77 4 0 6 -4 2 -9 -3 -5 1 -15 8 -23 8 -7 20 -30 26 -51 7 -20 17
-37 21 -37 5 0 7 -6 4 -14 -3 -7 2 -16 10 -19 9 -4 16 -13 16 -21 0 -8 4 -16
8 -18 5 -1 25 -25 45 -51 21 -27 37 -46 37 -43 0 3 16 -10 36 -29 20 -19 40
-35 45 -35 6 0 7 -5 4 -10 -3 -5 1 -10 9 -10 9 0 16 -5 16 -11 0 -5 5 -7 10
-4 6 3 10 1 10 -6 0 -7 3 -10 6 -6 4 3 13 -1 21 -9 8 -8 18 -12 23 -9 4 3 11
-2 14 -11 3 -8 10 -13 16 -9 5 3 20 -3 32 -14 12 -12 29 -21 38 -21 9 0 20 -3
24 -7 3 -4 12 -8 19 -9 7 -2 23 -6 37 -9 14 -4 35 -7 47 -6 12 0 26 -6 30 -14
6 -9 36 -16 98 -21 93 -7 111 -7 205 -2 30 2 63 0 72 -4 9 -5 19 -4 22 0 2 4
23 9 46 10 48 3 91 18 102 35 6 9 8 9 8 -1 0 -7 5 -10 11 -6 6 4 23 8 38 10
55 6 72 12 185 65 22 10 43 16 47 14 4 -3 9 2 12 10 3 7 24 22 45 32 22 10 40
22 40 28 0 5 7 12 15 15 8 3 25 19 38 35 24 30 25 32 24 255 l0 225 -30 2
c-70 3 -417 4 -421 1 -2 -2 -29 -1 -59 2 -31 3 -58 4 -60 1 -2 -4 -38 -4 -80
-1 -42 3 -78 3 -80 -1 -8 -12 -74 4 -80 19 -3 9 -2 18 4 20 6 2 7 13 3 25 -9
26 -9 298 0 313 4 6 231 9 610 9 l603 0 0 -72 c0 -40 4 -75 7 -79 4 -4 4 -14
-1 -23 -7 -14 -8 -87 -1 -101 1 -3 1 -9 0 -15 -8 -31 -5 -95 4 -95 7 0 8 -3 1
-8 -9 -6 -12 -88 -5 -117 1 -5 1 -14 0 -20 -8 -28 -5 -91 4 -97 7 -5 7 -8 1
-8 -11 0 -14 -224 -3 -236 4 -3 4 -14 -1 -23 -4 -9 -7 -44 -6 -79 1 -34 -1
-62 -5 -62 -4 0 -12 -12 -19 -26 -6 -15 -14 -24 -18 -21 -8 9 -33 -19 -33 -38
0 -9 -4 -14 -10 -10 -11 7 -51 -30 -42 -39 3 -3 -2 -6 -10 -6 -9 0 -19 -7 -22
-16 -3 -8 -10 -13 -16 -9 -5 3 -15 -3 -22 -15 -7 -11 -18 -20 -25 -20 -7 0
-13 -4 -13 -10 0 -5 -8 -10 -18 -10 -9 0 -22 -8 -29 -19 -6 -10 -27 -21 -46
-25 -19 -4 -38 -13 -41 -22 -3 -8 -10 -13 -15 -10 -5 4 -11 2 -13 -4 -1 -5
-16 -11 -32 -12 -15 -1 -31 -8 -33 -15 -3 -7 -9 -11 -13 -8 -5 3 -11 1 -15 -5
-3 -5 -17 -10 -30 -10 -13 0 -25 -4 -27 -10 -1 -5 -17 -11 -33 -13 -17 -2 -35
-6 -40 -9 -6 -3 -20 -4 -32 -3 -13 1 -23 -2 -23 -6 0 -4 -15 -9 -32 -12 -35
-6 -73 -14 -73 -17 0 -4 -62 -9 -185 -15 -124 -6 -177 -10 -190 -15 -14 -6
-37 -5 -58 2 -13 5 -75 10 -139 13 -119 5 -177 12 -203 25 -8 5 -31 11 -50 14
-41 8 -65 14 -65 16 0 1 -12 3 -27 4 -14 2 -52 16 -85 31 -32 16 -64 27 -72
26 -8 -1 -10 2 -5 10 5 8 3 10 -5 4 -8 -4 -25 1 -42 14 -15 11 -32 21 -37 21
-5 0 -28 14 -50 30 -23 17 -46 30 -50 30 -5 0 -19 11 -32 25 -13 14 -25 23
-27 21 -2 -2 -34 27 -71 65 -99 102 -111 116 -105 123 3 3 -2 8 -11 12 -9 3
-16 12 -16 20 0 7 -7 17 -15 22 -9 4 -17 18 -18 30 -1 12 -4 22 -8 22 -3 0
-17 23 -30 50 -13 28 -27 50 -32 50 -4 0 -6 4 -2 9 3 5 -1 16 -9 24 -8 8 -13
17 -10 20 3 3 -1 18 -9 34 -8 15 -17 45 -21 66 -4 20 -11 37 -16 37 -5 0 -7
10 -5 22 3 12 0 25 -6 28 -10 7 -16 39 -21 113 -2 20 -6 37 -10 37 -4 0 -3 13
2 29 5 18 4 33 -3 40 -15 15 -18 305 -2 364 7 26 9 50 4 52 -4 3 -3 20 1 38 5
17 9 41 9 52 -1 39 10 88 22 95 6 4 9 12 5 18 -3 5 1 26 9 45 8 19 12 37 9 40
-3 3 2 19 10 36 9 17 17 42 18 56 1 14 5 25 9 25 7 0 31 48 35 70 2 8 11 20
20 27 10 7 14 13 9 13 -5 0 -4 5 3 12 7 7 12 20 12 30 0 10 5 18 12 18 6 0 9
3 5 6 -3 4 -1 12 6 20 28 32 37 44 37 51 0 20 171 203 189 203 6 0 11 4 11 10
0 5 11 12 25 16 14 3 22 10 19 15 -4 8 0 10 21 9 3 0 14 8 25 18 22 21 133 79
139 74 2 -2 7 2 12 9 4 7 18 14 31 16 13 2 48 13 78 24 67 25 81 29 145 36 28
3 63 12 79 20 16 8 39 13 52 10 12 -2 28 -1 35 4 14 8 358 5 408 -4z"/>
</g>
</svg>
