<svg width="283" height="51" fill="none" xmlns="http://www.w3.org/2000/svg">
    <path d="M8.02 38.384v-1.105H5.703v1.12C2.022 38.616 0 40.296 0 43.162c0 2.867 2.022 4.543 5.703 4.762v1.198H8.02V47.94c3.684-.187 5.688-1.914 5.688-4.776 0-2.863-2.018-4.565-5.688-4.78zm-2.317 7.581c-2.097-.22-3.264-1.122-3.264-2.802s1.077-2.585 3.264-2.787v5.59zm2.317 0v-5.589c2.154.187 3.264 1.08 3.264 2.77s-1.074 2.614-3.264 2.82zM27.01 37.743L22.16 48.641h2.582l.962-2.334h5.053l.963 2.334h2.643l-4.866-10.898H27.01zm-.498 6.647l1.727-4.169 1.724 4.169h-3.451zM49.28 41.995h-3.016v-2.241h6.278v-2.01H43.76V48.64h5.16c2.798 0 4.4-1.262 4.4-3.438 0-2.086-1.415-3.208-4.04-3.208zm-.498 4.78h-2.514v-2.928h2.514c1.321 0 1.99.467 1.99 1.438 0 .972-.701 1.49-1.99 1.49zM67.895 37.743h-4.708v10.898H65.7v-3.003h2.19c2.906 0 4.727-1.51 4.727-3.956 0-2.446-1.818-3.939-4.723-3.939zm-.14 5.834h-2.033v-3.776h2.05c1.538 0 2.317.72 2.317 1.899 0 1.18-.797 1.877-2.334 1.877zM84.738 44.843v-7.1h-2.503v10.898h2.378l5.193-7.081v7.081h2.485V37.743h-2.36l-5.193 7.1zM112.744 37.743h-2.658l-2.862 4.406h-1.803v-4.406h-2.499v10.898h2.499v-4.388h1.742l2.83 4.388h2.859l-3.667-5.636 3.559-5.262zM125.389 37.743l-4.848 10.898h2.578l.966-2.334h5.05l.962 2.334h2.644l-4.863-10.898h-2.489zm-.495 6.647l1.723-4.169 1.724 4.169h-3.447zM155.672 42.167c-.112 2.784-.439 4.402-1.71 4.402a1.487 1.487 0 01-.452-.06l-.155 2.132c.407.104.823.162 1.243.173 2.55 0 3.153-2.46 3.293-6.74l.079-2.273h3.732v8.84h2.485V37.743h-8.361l-.154 4.424zM177.363 44.095h5.054v-1.96h-5.054v-2.367h5.722v-2.025h-8.225v10.898h8.426v-2.025h-5.923v-2.521zM198.527 39.707a3.493 3.493 0 012.737 1.277l1.616-1.496c-1.027-1.245-2.596-1.928-4.478-1.928-3.387 0-5.905 2.349-5.905 5.632 0 3.284 2.514 5.636 5.89 5.636 1.897 0 3.466-.683 4.493-1.946l-1.616-1.496a3.474 3.474 0 01-2.737 1.295 3.482 3.482 0 01-3.595-3.487 3.495 3.495 0 011.06-2.506 3.483 3.483 0 012.535-.98zM211.252 39.8h3.465v8.841h2.489v-8.84h3.48v-2.058h-9.434v2.058zM237.684 42.041h-4.942v-4.297h-2.517V48.64h2.517v-4.467h4.942v4.467h2.518V37.743h-2.518v4.298zM253.378 44.843v-7.1h-2.503v10.898h2.378l5.193-7.081v7.081h2.485V37.743h-2.36l-5.193 7.1zM281.445 37.743h-2.503v8.844h-4.849v-8.844h-2.503v10.898h9.094v2.306H283v-4.36h-1.555v-8.844zM13.302 13.179L25.23.465h-5.922L5.272 15.045V.466H0V28.9h5.272v-7.272L9.776 17l10.02 11.9h6.162L13.302 13.18zM87.77 14.682C87.77 6.234 81.28.06 72.476.06c-8.802 0-15.288 6.215-15.288 14.623 0 8.41 6.49 14.624 15.288 14.624 8.8 0 15.292-6.175 15.292-14.624zm-25.27 0c0-5.808 4.26-9.995 9.977-9.995 5.718 0 9.98 4.187 9.98 9.995 0 5.809-4.258 9.992-9.98 9.992-5.72 0-9.987-4.183-9.987-9.992h.01zM113.362 19.718L97.707.465h-4.338V28.9h5.228V9.643L114.257 28.9h4.338V.465h-5.232v19.253zM146.176 12.204h-14.685V.465h-5.272V28.9h5.272V16.715h14.685V28.9h5.272V.465h-5.272v11.74zM172.336.059c-8.803 0-15.293 6.215-15.293 14.623 0 8.41 6.49 14.624 15.293 14.624 8.802 0 15.292-6.175 15.292-14.624 0-8.448-6.49-14.623-15.292-14.623zm0 24.615c-5.718 0-9.977-4.183-9.977-9.992 0-5.808 4.259-9.995 9.977-9.995 5.717 0 9.98 4.187 9.98 9.995 0 5.809-4.259 9.992-9.98 9.992zM217.845 16.51V.464h-5.193v15.843c0 5.848-2.596 8.366-7.182 8.366-4.587 0-7.219-2.518-7.219-8.366V.483h-5.272v16.026c0 8.273 4.669 12.797 12.455 12.797 7.786 0 12.411-4.51 12.411-12.797zM228.673 8.306c0-2.158 1.796-3.86 6.163-3.86 2.76.046 5.46.816 7.829 2.234l1.663-4.104C241.854.951 238.284.06 234.876.06c-7.79 0-11.439 3.898-11.439 8.488 0 10.563 16.88 6.542 16.88 12.674 0 2.111-1.864 3.697-6.289 3.697-3.487 0-7.096-1.302-9.366-3.129l-1.828 4.104c2.352 2.032 6.773 3.413 11.194 3.413 7.79 0 11.493-3.902 11.493-8.448-.015-10.441-16.848-6.503-16.848-12.552zM53.335 10.579c0-6.294-4.622-10.114-12.084-10.114H29.568v4.467h11.438c4.622 0 7.018 2.072 7.018 5.647s-2.396 5.686-7.018 5.686H29.568v12.634h5.268v-8.272h6.41c.36.007.72-.008 1.078-.043l5.8 8.33h5.678l-6.532-9.351c3.875-1.521 6.065-4.68 6.065-8.984zM272.255 5.979V.465h-24.666v2.759l5.305 2.755h19.361zM252.962 14.7l5.304 2.755h19.361v-5.513h-24.665V14.7zM258.334 23.382v2.759l5.305 2.759H283v-5.518h-24.666z" fill="white"/>
</svg>
